<?xml version="1.0" encoding="UTF-8"?>
<svg id="Layer_1" data-name="Layer 1" xmlns="http://www.w3.org/2000/svg" viewBox="0 0 2878.98 1000">
  <g>
    <polygon points="1975.1 754.99 1975.1 875.68 1368.21 875.68 1368.21 786.97 1766.19 245.89 1368.75 245.89 1368.75 124.67 1966.9 124.67 1966.9 210.82 1571.32 754.99 1975.1 754.99"/>
    <path d="M2225.41,124.68l166.22,342.5,166.2-342.5h178.79l-261.89,477.64v273.37h-166.2v-273.37l-262.43-477.64h179.32Z"/>
  </g>
  <path d="M693.23,549.96h-397.6l.17,190.64h397.6v135.08H142.36V124.31h551.04v133.04h-397.6v159.55h397.6l-.17,133.05Z"/>
  <g>
    <polygon points="843.54 874.57 843.94 392.38 1218.58 875.5 843.54 874.57"/>
    <polygon points="1218.58 125.43 1218.58 606.69 843.02 124.5 1218.58 125.43"/>
  </g>
</svg>