<?xml version="1.0" encoding="UTF-8"?>
<svg id="Layer_2" data-name="Layer 2" xmlns="http://www.w3.org/2000/svg" viewBox="0 0 826.73 272.53">
  <defs>
    <style>
      .cls-1 {
        fill: #fff;
      }
    </style>
  </defs>
  <g id="Layer_1-2" data-name="Layer 1">
    <g id="_1CI7Di.tif" data-name="1CI7Di.tif">
      <g>
        <path class="cls-1" d="M826.73,72.49v8.52c-2.51,11.37-13.15,17.81-23.82,15.69-9.45-1.88-16.39-10.47-16.16-20.34.22-9.72,7.35-18.05,17.15-19.47,10.71-1.56,20.35,5.12,22.84,15.61ZM823.54,76.88c0-9.2-7.46-16.65-16.66-16.65s-16.66,7.45-16.66,16.65,7.46,16.65,16.66,16.65,16.66-7.45,16.66-16.65Z"/>
        <path class="cls-1" d="M812,87.44c-1.77-2.59-2.53-5.49-4.5-7.8-.89-1.04-3.31-.33-4.43-.24l-.16,8.06c-1.21.33-2.36.34-3.71-.03v-21.38c5.97.36,15.19-2.07,16.41,5.33.51,3.12-1.04,5.92-4.2,7.18l4.76,8.76c-1.2.44-2.55.32-4.15.13ZM809.67,75.73c1.92-.49,2.34-2.35,2.09-3.93-.56-3.51-5.63-2.65-8.62-2.62-.26,2.29-.27,4.38.01,6.77,2.2-.01,4.3.36,6.52-.21Z"/>
        <g>
          <g>
            <path class="cls-1" d="M208.28,202.36l-.08,70.15-38.94.02-.02-205.34,37.42-.02.26,11.43c11.9-9.34,25.94-14.17,41.05-14.38,31.94-.44,58.77,20.18,68.5,50.08,9.48,29.1,2.34,62.87-21.03,83.4-15.05,12.68-34.22,18.91-53.87,17.5-12.21-.87-23.1-5.19-33.29-12.84ZM246.7,179.27c14.71-1.25,26.55-10.16,31.92-23.51,4.83-12.67,3.74-26.75-3.35-38.31-6.15-10.02-16.22-16.22-27.94-17.18-15.3-1.08-29.82,5.56-39.03,17.81l.03,43.48c8.82,12.29,23,18.81,38.37,17.71Z"/>
            <path class="cls-1" d="M114.1,212.37l-.36-11.52c-26.71,22.92-68.61,17.23-92.38-7.12-27.55-28.24-28.43-75.51-2.76-105.29,15.09-17.51,37.32-26.35,60.35-23.89,12.76,1.37,24.39,5.88,34.73,14.07l.33-11.45,37.34.07v145.01s-37.24.13-37.24.13ZM74.65,179.33c15.18.84,29.11-5.8,37.64-17.84l.02-43.32c-9.12-12.35-23.85-19.04-39.27-17.88-12.05,1.06-22.32,7.68-28.34,18.2-6.59,11.5-7.39,25.18-2.63,37.53,5.54,13.47,17.65,22.34,32.59,23.31Z"/>
          </g>
          <path class="cls-1" d="M431.65,179.56l.13,34.2c-17.38,3.02-36.97,2.38-52.83-5.95-12.07-6.34-20.52-17.11-23.86-30.33-1.83-7.26-2.46-14.19-2.74-21.81l-.06-55.46-36.23-.04-.02-32.93,36.25-.13.02-40.33h39.04s.02,40.35.02,40.35l40.33.05.06,32.85-40.41.1.06,59.54c.47,4.89,1.2,9.31,4,13.16,3.4,4.58,8.6,6.79,14.26,7.68,7.15.9,14,.16,21.98-.94Z"/>
          <g>
            <path class="cls-1" d="M757.69,167.16l22.23,22.14c-6.57,7.69-14.29,13.49-23.31,17.79-40.86,19.51-94.32,4.28-108.61-41.7-7.98-25.69-3.54-55.32,13.64-76.47,12.17-14.98,29.87-23.75,49.22-24.58,23.7-1.51,45.62,9.42,59,28.98,11.14,16.28,15.55,36.51,12.81,56.21h-100.58c1.22,14.33,10.48,26.43,23.91,31.61,9.27,3.51,19.03,3.58,28.53.71,8.77-2.81,16.34-7.57,23.16-14.68ZM683.89,121.09l59.66-.05c-1.72-14.52-13.98-25.36-28.66-25.36-11.28,0-21.29,5.76-27.35,15.06-1.83,3.3-3.48,6.54-3.65,10.35Z"/>
            <path class="cls-1" d="M589.5,212.32l-27.06.07-66.77-145.17,40.43-.07,39.83,88.44,39.77-88.28c.09-.2.81-.05.96-.16h38.51c.53.01.87.2.74.8l-66.4,144.37Z"/>
          </g>
          <g>
            <rect class="cls-1" x="446.38" y="67.16" width="38.98" height="145.23"/>
            <ellipse class="cls-1" cx="465.88" cy="25.24" rx="25.25" ry="25.24"/>
          </g>
        </g>
      </g>
    </g>
  </g>
</svg>