<?xml version="1.0" encoding="UTF-8"?>
<svg id="Layer_2" data-name="Layer 2" xmlns="http://www.w3.org/2000/svg" viewBox="0 0 826.73 455.82">
  <defs>
    <style>
      .cls-1 {
        fill: #fff;
      }
    </style>
  </defs>
  <g id="Layer_1-2" data-name="Layer 1">
    <g id="HSDsRW">
      <g>
        <g>
          <rect class="cls-1" x="520.65" y="248.61" width="25.78" height="141.1"/>
          <path class="cls-1" d="M553.35,217.81c-5.24,9.82-16.53,15.44-27.96,13.42l-7.13,2.07c1.21-4.14-.36-7.45-1.97-10.89-4.1-8.74-1.68-18.78,4.31-26.25,10.24-.03,28.87,12.21,32.75,21.65Z"/>
          <path class="cls-1" d="M550.19,208.27c-1-1.79-1.71-1.8-2.94-2.8-7.5-6.14-15.71-10.83-25.92-12.41,5.88-8.51,17.59-9.06,26.14-4.47,1.95-2.74,3.78-5.58,6.57-7.53.78-.55,3.09,1.45,2.71,2.33-1.71,2.57-4.78,4.5-6.06,7.44,7.46,6.03,10.75,16.15,5.47,25.04-1.92-2.44-4.41-4.81-5.97-7.6Z"/>
        </g>
        <g>
          <path class="cls-1" d="M240.74,144.2c30-.61,58.49,12.23,77.6,34.96.96,1.14,1.84,2.3,1.89,3.69-41.19-14.51-82.27-14.35-120.62,5.99-19.62,10.41-36.21,24.95-49.21,42.93-18.91,26.17-30.56,57.76-29.98,90.93-5.2-5.92-8.62-12.29-12.05-19.14-7.99-15.97-11.99-33.2-12.83-51.14-.82-17.39,1.84-33.87,6.55-50.59,9.09-32.26,26.98-61.37,51.18-84.52,35.68-34.12,83.98-51.39,133.35-46.62,1.83-12.8,13.85-20.63,26.64-17.34-6.07,6.64-5.88,15.56.23,21.89,10.68,11.06,23.29,14.15,32.7,24.88l2.48,2.83c5.15,5.87,8.26,13.41,9.54,21.06.61,3.64.59,6.9,2.2,10.67-10.06,2.2-12.08,7.36-24,10.06-9.52,2.16-19.34,2.01-28.72-.62-6.38-1.79-12.17-3.94-18.61-5.39-16.59-3.73-34.24-2.94-48.34,5.46ZM319.7,107.13c4.32,2.98,10.71,5.58,15.48,3.57,1.11-4.86-2.89-10.47-6.89-12.6-5.05-2.69-10.25-1.91-14.65.86,2.19,3.21,3.03,6.06,6.07,8.16Z"/>
          <path class="cls-1" d="M102.31,45.58c-25.15,7.02-40.21,30.48-42.95,56.06-3.47,32.4,12.02,67.21,39.62,85.03-1.91,5.61-3.59,10.82-4.99,16.91-34.44-.06-66-19.1-82-49.7C4.46,139.47.69,123.88.08,107.56c-.77-20.66,4.01-40.77,14.12-58.74C30.73,19.44,61.37.94,95.14.03c31.44-.84,62.3,13.78,71.35,45.58,3.79,13.32,2.23,27.34-5.2,38.97-13.58,21.24-44.12,23.03-59.63,6.53-12.11-12.87-12.07-32.7.65-45.54Z"/>
        </g>
        <g>
          <path class="cls-1" d="M611.98,373.92l-.08,81.9h-25.22s0-207.15,0-207.15l25.14-.02.23,16.3c18.08-18.04,46.83-23.35,70.38-14.78,20.82,7.58,35.96,25.31,41.31,46.73,3.67,14.69,3.64,29.82-.02,44.36-7.36,29.26-32.83,49.67-62.91,50.8-18.36.82-34.86-4.48-48.83-18.13ZM697.11,340.12c2.59-7.05,3.5-13.73,3.49-21.01-.02-26.11-15.68-49.25-43.35-49.23-17.95.01-33.82,9.94-40.88,26.48-6.69,15.68-6.28,36.44,2.63,51.22,8,13.28,21.71,20.74,37.18,20.75,18.37,0,34.51-10.72,40.93-28.22Z"/>
          <g>
            <path class="cls-1" d="M456.79,389.66l-.13-82.74c-.01-7.1-1.2-13.53-3.93-19.87-7.79-18.05-29.22-20.39-45.7-14.95-18.31,6.05-26.27,22.71-26.75,41.22l-.07,76.32-25.44.04-.02-199.49,25.46-.05.08,72.27c17.48-16.53,42.82-20.19,64.89-13.82,24.84,7.83,36.37,29.37,36.93,54.6l.05,86.42-25.37.05Z"/>
            <path class="cls-1" d="M285,366.41c10.44-3.5,19.12-8.82,26.29-16.96l17.83,17.35c-10.12,11.5-23.21,19.27-37.86,23.54-31.94,8.55-65.85,1.18-89.13-22.86-19.01-19.63-27.43-47.41-21.15-74.22,5.79-24.7,22.83-44.95,45.69-55.73,20.99-9.89,44.96-11.57,66.92-4.32,12.66,4.58,23.85,11.22,32.83,21.25l-16.95,17.13c-13.04-13.43-30.59-20.05-49.39-18.14-26.21,2.4-48.28,21.6-53.22,47.56-5.4,28.38,11.6,56.1,38.93,65.12,12.67,4.18,26.14,3.98,39.23.27Z"/>
          </g>
          <path class="cls-1" d="M778.2,389.54l-25.3.08-.03-140.94,25.23-.07.34,15.16c12.16-13.16,31.09-18.8,48.25-17.11l.04,24.21c-8.12-.58-15.94.02-23.45,3.01-8.43,3.08-14.88,8.96-19.09,16.86-3.82,7.32-5.79,15.1-5.81,23.67l-.17,75.13Z"/>
        </g>
      </g>
    </g>
  </g>
</svg>