<?xml version="1.0" encoding="UTF-8"?>
<svg id="Layer_2" data-name="Layer 2" xmlns="http://www.w3.org/2000/svg" viewBox="0 0 763.37 313.24">
  <defs>
    <style>
      .cls-1 {
        fill: #fff;
      }
    </style>
  </defs>
  <g id="Layer_1-2" data-name="Layer 1">
    <g id="ibLUXm">
      <g>
        <path class="cls-1" d="M732.15,179.62c-8.41.04-16.42-4.02-19.79-12.17-5.82-14.05-4.74-38.44,10.03-46.29,7.25-3.85,15.61-3.59,23.6-1.75l.21-21.15c.04-3.62,12.19-1.8,15.61-1.73l.23,74.87c0,2.34,1.13,4.19.37,6.51-3.39.27-6.91.35-10.49-.02-1.11-2.25-.56-4.45-2.5-7.13-4.24,6.13-10.21,8.82-17.26,8.85ZM729.23,163.98c2.61,2.88,7.16,3,10.51,1.93,2.36-.75,6.01-3.34,6.11-6.92.23-8.22.95-16.8-.23-25.1-2.95-3.98-11.3-3.37-15.04-.56-4.35,3.26-5.01,7.86-5.25,12.8-.3,6.13-.6,12.88,3.9,17.85Z"/>
        <path class="cls-1" d="M569.42,145.82l-.69-6.9c-.3-3.02-1.87-5.82-5.02-6.85-5.56-1.82-14.12,1.85-14.22,8.38l-.6,37.28c-4.26.75-8.52.16-12.77.4-1.92.11-2.76-1.13-2.76-3.03l.08-78.52c5.42-.66,10.3-.49,15.5-.16l.45,28.8,6.15-4.72c5.68-4.36,15.14-3.93,21.65-.02,5.45,3.27,7.18,9.9,7.22,15.99l.32,41.29c-5.37.6-9.99.38-15.09.19l-.2-32.1Z"/>
        <path class="cls-1" d="M642.32,164.73c7.68,5.04,16.11,1.9,23.81-1.26,1.98,2.02,2.33,4.75,4.01,6.96.9,1.19.8,2.81-.67,3.67-11.89,6.93-31.51,8.58-40.74-2.14-5.86-6.81-7.01-15.56-7.01-24.39,0-9.72,2.77-19.61,11.17-25.22,7.17-4.79,16.6-5.43,24.89-3.46,9.13,2.17,14.63,10.14,15.04,19.14.12,2.72.92,4.89-.04,7.61-.76,2.16.11,4.64-.9,6.81l-34.84.19c.11,4.58,1.47,9.58,5.28,12.08ZM658.63,142.73c.62-4.27-.34-8.49-3.75-10.89s-8.37-2.09-11.86.12c-3.19,2.02-5.52,6.15-5.25,10.66l20.86.12Z"/>
        <path class="cls-1" d="M341.28,159.02c3.13-.82,6.13-.57,9.68-.07-.92,10.91-9.4,18.32-20.2,20.01-8.16,1.27-17.07-.38-23.68-5.67-12.57-10.08-15.62-37.22.32-50.96,5.09-4.39,10.91-6,17.43-6.11,19.3-.33,28.63,17.59,27.34,34.75l-44.52.13c-.98,4.91,1.28,10.33,4.47,13.93,3.55,4.01,8.78,5.22,14.15,5.26,7.04.06,13.53-3.53,15.02-11.27ZM341.34,141.67c-.35-11.56-11.24-18.38-20.71-16.27-7.19,1.6-12.97,7.97-13.15,16.3l33.85-.03Z"/>
        <path class="cls-1" d="M482.42,174.53c.31-4.48,2.36-7.97,3.97-11.49,6.04,2.78,21.3,8.31,23.22-.34,1.12-5.02-7.88-7.66-12.27-9.19-10.38-3.62-16.25-11.76-13.65-22.9,3.96-16.95,28.4-14.18,39.77-8.17-.57,3.92-1.78,7.29-3.09,10.91-6-1.61-20.18-6.82-21.71,1.12-.39,2.05,1.24,4.1,3.6,5.06l12.79,5.22c6.55,2.67,10.14,8.78,10.24,15.88.13,8.96-5.64,16.39-14.48,18.17-9.56,1.93-19.23.59-28.39-4.27Z"/>
        <path class="cls-1" d="M475.63,159.65c-4.33,15-18.81,21.65-33.24,19.21-12.66-2.13-21.68-11.94-23.24-24.78-1.11-9.13-.08-18.56,5.04-26.11,5.47-8.07,13.89-11.77,23.37-11.79,9.39-.02,18.32,3.05,23.96,11.17,6.41,9.23,7.22,21.54,4.12,32.29ZM463.62,160.95c4.12-7.68,3.98-17.22.76-24.87-2.85-6.76-9.06-10.84-15.76-11.08s-12.96,3.44-16.24,9.71c-3.53,6.75-3.65,14.96-1.61,22.28s7.91,12.17,14.43,13.1c7.51,1.06,14.57-1.95,18.42-9.15Z"/>
        <path class="cls-1" d="M387.67,170.32c8.4-.14,14.02-5.73,15.34-13.82,2.98-1.37,6.52-1.08,10.25-.38-.94,9.6-6.65,18.45-16.05,21.53-8.58,2.81-17.82,2.28-25.58-2.18-13.34-7.66-15.05-25.86-11.58-39,3.57-13.52,15.03-21.04,28.7-20.28,9.53.53,18.55,3.95,22.37,13.38.71,1.76,2.73,5.59.87,7.09-2.05,1.65-5.98.28-8.59.55l-3.83-7.02c-3.32-6.09-11.83-6.42-18.49-4.04-13.08,4.67-14.4,24.97-8.58,36.15,2.87,5.52,8.53,8.11,15.17,8Z"/>
        <path class="cls-1" d="M707.16,166.13l1.47,10.26c-5.78,3.17-12.4,3.94-18.88,2.6-4.57-.95-8.28-4.68-8.28-9.68l-.08-72.81c5.35-.52,10.04-.53,15.13.08l.17,64.58c0,1.71,1,3.26,1.77,3.98,2.66,2.5,8.33-1.57,8.69.99Z"/>
        <rect class="cls-1" x="597.41" y="119.59" width="15.47" height="58.5"/>
        <path class="cls-1" d="M488.8,218.97c-2,4.13,2.19,14.97-3.68,13.35-.88-.24-1.89-1.22-1.88-2.7l.07-34.83c0-1.59,2.14-1.53,3.06-1.56,1.26-.05,1.94.85,2.86,2.23,5.51-4.4,14.21-3.79,18.29,2.48,3.32,5.1,3.6,11.87,1,17.4-3.49,7.44-13.01,8.75-19.72,3.64ZM491.76,216.13c2.96,2.71,7.34,1.86,9.59.27,5.4-3.82,5.11-15.43-.83-18.44-3.01-1.52-7.2-1.48-9.75,1.67-3.67,4.53-3.59,12.29,1,16.49Z"/>
        <path class="cls-1" d="M526.94,217.75c4.22.26,6.63-1.47,7.86-4.83.36-.99,4.1-1.05,4.12,0,.13,5.69-5.66,9.16-10.72,9.07-4.24-.08-7.61-.83-10.26-3.61-5.16-5.42-5.56-17.88,1.61-23.26,3.64-2.73,9.45-3.59,13.5-1.09,5.08,3.13,7.36,8.58,6.64,14.24-6.66.99-12.8,1.08-19.91.85-1.39,4.43,2.27,8.32,7.15,8.63ZM534.86,204.05c-.65-4.98-4.58-7.26-8.51-7.08-3.6.16-6.9,3.18-6.9,7.24,5.29.1,10.07.43,15.42-.16Z"/>
        <path class="cls-1" d="M648.23,221.43c-4.48,1.2-9.32.77-12.7-1.91-5.03-3.99-6.48-10.69-4.95-16.65,1.54-6.01,6.16-9.97,12.22-10.28,8.82-.46,14.8,5.86,14.72,14.58-.05,6.14-2.49,12.44-9.29,14.26ZM652.37,208.14c.2-4.11-.95-7.76-4.26-9.92-2.95-1.92-6.49-1.51-9.09.21-2.88,1.91-3.43,5.18-3.65,8.69-.34,5.35,2.44,10.31,7.81,10.62,5.14.29,8.9-3.62,9.2-9.59Z"/>
        <path class="cls-1" d="M735.39,221.65c-6.65-1.31-9.66-7.65-9.88-13.74-.31-8.49,4.97-14.92,12.89-15.33,8.31-.42,14.7,5.94,14.38,14.51-.18,4.76-1.06,8.95-4.67,11.92-3.28,2.7-7.61,3.64-12.71,2.63ZM747.63,207.53c-.14-3.69-.7-6.33-2.9-8.3-2.04-1.84-4.91-3.02-7.93-1.94-4.78,1.71-6.41,6.49-6.2,11.33.23,5.22,4.2,9.54,9.11,9.14s8.12-4.77,7.91-10.22Z"/>
        <path class="cls-1" d="M561.32,221.05c-2.53,1.08-5.12.46-7.81.68-5.17.42-10.64-3.09-10.46-8.58.04-1.28,2.6-.94,3.45-.79.98.16,1.29,1.49,2.14,2.7,2.55,3.6,8.28,3.59,11.76,1.2,1.09-.75,1.28-1.99,1.24-2.89-.28-5.81-18.03-2.55-18.18-12.44-.05-3.18,1.98-6.15,5.26-7.31,4.23-1.49,9.15-1.41,13.04.83,2.33,1.33,4.15,4.09,3.03,6.49-.41.87-2.49.35-3.4.26-.83-.08-.94-1.32-1.89-2.32-2.54-2.66-7.84-2.67-10.49.02-1.5,1.52.44,3.76,1.94,4.36,5.42,2.17,15.33,2.17,15.74,9.3.22,3.86-1.34,6.79-5.38,8.5Z"/>
        <path class="cls-1" d="M675.94,196.94c-4.92-.13-8.2,2.97-8.28,7.45l-.26,15.85c-.03,1.74-4.43,1.97-4.51.47-.47-9.07-.02-17.93.03-26.82.07-.72,2.86-.9,3.4-.43s.66,1.56,1.45,3.01c2.92-2.98,5.92-4.14,10.03-3.86,4.4.31,7.86,3.61,8.16,8.25.42,6.55.55,13.03-.04,19.65-.14,1.51-4.03,1.56-4.21.17-1.48-11.56,2.87-23.52-5.8-23.76Z"/>
        <path class="cls-1" d="M611.94,217.51c8.84,1.93,8.69-5.36,10.66-6.35.74-.37,3.4-.62,3.44.21.37,6.69-5.35,10.49-11.1,10.68-7.34.25-12.71-3.79-13.63-11.33-.2-1.64-.19-3.43-.13-5.16.28-7.87,6.15-13.43,14.18-12.95,4.97.3,10.31,3.22,10.72,8.7.11,1.5-2.23,1.4-3.08,1.39-2.78-.05-2.02-7.82-11.1-5.32-3.38.93-4.94,3.87-5.54,7.56-.86,5.24.53,11.49,5.58,12.59Z"/>
        <path class="cls-1" d="M613.51,107.14c-3.41,4.69-10.18,5.33-14.74,2.5-3.48-2.16-4.1-6.49-2.91-9.53,1.56-3.99,5.07-5.18,9.3-5.02,3.17.12,5.84.95,7.65,3.18s2.83,5.94.7,8.86Z"/>
        <path class="cls-1" d="M699.43,213.64c-.06,5.89,5.88,1.51,5.55,6.05-.14,1.98-1.47,1.87-3.28,1.98-12.03.74-5.15-15.2-7.6-23.98-1.25-.46-3.43.07-3.8-.62-.48-.91-.68-3.24.48-3.62,1.3-.43,2.79.07,3.35-.85,1.13-1.86-.6-6.62,1.17-7.3.91-.35,2.6-.56,3.49-.1,1.57.81,0,5.6,1.06,7.45.82,1.42,4.92-.26,5.19,1.9.11.84.35,2.33-.7,2.74-1.5.58-3.04.01-4.76.52l-.15,15.84Z"/>
        <path class="cls-1" d="M578.26,214.4c-.05,4.08,4.61,2.32,5.36,3.64.52.91.47,2.2-.02,2.89-.77,1.09-6.07,1.09-8.2-.44-1.14-.82-1.9-2.81-1.96-4.9l-.47-17.64c-.73-.78-3.41-.13-3.8-1.01s-.79-3.08.33-3.5c1.28-.47,2.84.08,3.41-.84,1.06-1.69-.55-6.12,1.26-7.23.84-.51,3.11-1.01,3.73.18.92,1.78-.12,5.87.7,7.07.43.63,1.54.68,2.55.64,1.81-.07,2.71.49,2.83,1.87.15,1.71-.71,2.6-2.9,2.41-.65-.06-2.62-.02-2.63.97l-.19,15.87Z"/>
        <path class="cls-1" d="M763.37,219.81c.01,1.71-1.79,1.79-2.48,1.81s-2.52-.13-2.51-1.47l.17-36.77c0-1.37,4.59-1.35,4.6,0l.22,36.43Z"/>
        <path class="cls-1" d="M714.42,220.56c-.05,1.5-4.29,1.49-4.38.15-.61-8.97-.21-17.58-.18-26.69,0-1.08,2.88-.9,3.68-.5.87.44.89,2.04,1.46,3.61,2.39-2.39,4.86-4.69,8.48-4.32,1.49.15,1.39,1.93,1.35,3.02-.11,2.97-9.72,1.61-9.95,9.39l-.46,15.33Z"/>
        <g>
          <path class="cls-1" d="M264.93,97.58c-1.51,31.07-9.1,60.86-20.09,89.66-20.23,53.02-56.9,97.48-106.74,126,.35-5.91-.55-10.13-.55-15.49l-.11-296.6c1.57-2.14,3.04-.7,5,.04l122.57,46.17.69,11.95c.43,7.49.35,15.09-.01,22.59l-.76,15.68ZM250.84,117.45c3.4-8.72,3.16-17.03,3.9-25.46.69-7.91.28-15.46-.67-23.46l-105.68-40.65c-.93-.36-1.72.02-2.15.26-.37.21-.66.99-.66,1.78l.1,16.81,89.24,35.2,15.91,35.52ZM220.67,191.16c.29,5.87.04,11.42,1.82,17.4,9.62-14.81,15.37-30.68,18.77-47.14.55-2.64-.64-3.05-2.52-4l-89.1-44.94c-.99-.5-3.54-2.14-3.77-.26-.72,6.13-.23,12.18-.3,18.68l73.8,38.37c.31,3.15.5,5.59.64,8.42l.66,13.46ZM170.49,274.23c14.31-9.54,24.42-21.38,32.65-35.46l-57.23-32.93c-1.03,6.99-.21,13.36-.47,20.19l31.14,19.34-6.09,28.85Z"/>
          <path class="cls-1" d="M128.25,137.86l-102.82,59.16c-8.48-18.86-14.01-38.12-18.31-57.98l120.75-69.27.37,68.08Z"/>
          <path class="cls-1" d="M.48,84.12c-.65-10.39-.92-26.91,1.14-36.84L102.33,9.28c4.35-1.64,7.91-3.55,12.41-4.37,4.21-2.17,8.47-3.91,13.33-4.91l.13,46.26L3.75,117.6c-2.45-11.96-2.58-22.53-3.27-33.48Z"/>
          <path class="cls-1" d="M128.28,228.98l-60.59,34.99c-13.22-14.72-24.13-30.31-33.64-48.57l93.84-53.98.39,67.55Z"/>
          <path class="cls-1" d="M128.13,310.14c-.14.85-.28,1.35-.78,1.85-.46.46-1.05-.18-2.08-.4-15.33-9.31-29.75-19.6-43.2-32.61l45.87-26.3.2,57.46Z"/>
        </g>
      </g>
    </g>
  </g>
</svg>