<?xml version="1.0" encoding="UTF-8"?>
<svg id="Layer_2" data-name="Layer 2" xmlns="http://www.w3.org/2000/svg" viewBox="0 0 760.43 283.73">
  <defs>
    <style>
      .cls-1 {
        fill: #fff;
      }
    </style>
  </defs>
  <g id="Layer_1-2" data-name="Layer 1">
    <g id="IgHsIG.tif">
      <g>
        <g>
          <path class="cls-1" d="M226.07,94.39l.07,32.01c0,3.52-2.51,5.51-6.2,5.51H47.78s-.37,74.24-.37,74.24c-.02,3.27-2.05,5.37-5.22,5.82l-35.84-.04c-4.08,0-5.65-2.96-5.63-6.85L1.76,57.16C1.97,26.56,29.62,3.49,58.87.31l162.18.03c3.19,0,5.09,2.25,5.09,5.26l-.02,31.35c0,3.48-2.56,5.41-6.11,5.41l-142.01.07c-16.61,0-29.68,13.11-30.52,29.23-.32,6.17-.14,11.66.2,17.73h173.29c2.78.01,5.11,2.08,5.12,5.02Z"/>
          <g>
            <path class="cls-1" d="M755.03,211.9l-35.87.09c-3.6-.39-6.71-1.3-9.27-3.99l-70.44-74.15-69.11,72.89c-3.14,3.31-6.48,5.28-11.22,5.23h-34.74c-2.28,0-4.29-1.06-5.02-2.47-1.05-2.04-1.1-4.47.85-6.51l92.47-96.97-92.98-97.58c-1.39-1.46-1.06-3.86-.7-5.16.3-1.08,1.37-2.81,3.36-2.82l38.9-.18c2.47.48,4.94.89,6.81,2.85l71.38,74.75L709.86,3.83c2.03-2.13,4.47-3.06,7.22-3.53l38.95.08c2.1,0,3.51,1.85,3.85,3.08.47,1.68.49,3.58-1.05,5.2l-92.65,97.36,93.07,97.73c1.54,1.62.89,4.1.34,5.57-.48,1.25-2.44,2.58-4.56,2.58Z"/>
            <g>
              <path class="cls-1" d="M324.03,172.84l117.04.25c9.44.02,17.49-5.15,23.47-12.05,21.73-7.98,38.26-23.5,49.96-44.25l.08,33.68c.08,34.21-28.4,61.47-62.93,61.46l-137.86-.02c-32.87,0-62.26-26.02-62.23-59.2l.07-93.9c.02-27.97,24.71-56.33,54.34-57.46,51.2-1.95,101.63-1.57,152.92-.17,32.58.89,56.2,32.33,55.74,62.55-12.2,10.75-26.68,15.7-42.89,15.11,3.23-21.75-11.79-40.24-33.76-40.2l-112.36.21c-16.66.03-31.6,13.95-31.57,30.71l.1,73.79c.02,15.2,14.02,29.46,29.89,29.49Z"/>
              <path class="cls-1" d="M527.83,59.66c-8.83,52.74-38.12,102.32-97.23,100.43-49.87-1.6-84.36-36.86-129.38-54.87l.02-34.52c0-15.68,13.72-26.59,29.43-24.91,14.99,1.6,29.15,5.71,43.46,10.63l36.86,12.65c15.87,5.45,31.43,10.14,47.95,13.21,27.98,5.97,48.21-3.43,68.89-22.63ZM427.54,142.53c11.16,3.94,22.05,2.14,33.86,1.45l-3.79,6.61c20.44-6.94,36.66-20.46,46.54-38.86,6.15-11.44,11.18-22.74,14.02-36.39-20,14.26-42.36,17.83-65.41,11.43,4.44,6.9,10.85,8.68,16.75,13.68-10.91,5.19-22.41,6.77-33.72,6.42,10.14,9.3,22.17,12.66,35.6,16.24-12.28,11.8-27.51,17.22-43.84,19.43Z"/>
            </g>
          </g>
        </g>
        <path class="cls-1" d="M492.83,282.63c-3.63.68-6.8.3-10.57.13l-21.66-32.5-.3,32.46c-3.49.39-6.28.36-10.05.02l-.15-48.56c3.41-1.24,6.99-.87,10.59-.15l21.45,32.43.48-32.6c3.39-.55,6.57-.45,10.16-.19l.04,48.96Z"/>
        <path class="cls-1" d="M420.49,258.2c0,14.1-11.46,25.53-25.59,25.53s-25.59-11.43-25.59-25.53,11.46-25.53,25.59-25.53,25.59,11.43,25.59,25.53ZM409.87,257.14c-.46-9.93-7.74-15.89-16.55-15.08-8.31.76-13.7,7.92-13.48,16.71.24,9.34,6.7,16.09,15.57,15.8,8.88-.29,14.92-7.46,14.46-17.43Z"/>
        <path class="cls-1" d="M705.15,258.19c0,14.1-11.45,25.53-25.58,25.53s-25.58-11.43-25.58-25.53,11.45-25.53,25.58-25.53,25.58,11.43,25.58,25.53ZM694.54,257.31c-.36-9.56-7.18-15.76-15.91-15.3-8.74.47-14.34,7.64-14.13,16.77s6.92,16.34,16.21,15.74c8.45-.55,14.18-7.68,13.82-17.22Z"/>
        <path class="cls-1" d="M614.43,282.43c-4.7-4.33-6.7-11.03-10.08-16.41-1.11-1.77-5.37-3.4-5.46-.94l-.61,17.65c-3.44.35-6.38.45-9.9-.06v-49.08c13.36.45,34.7-3.93,36.65,13.44.81,7.26-3.32,13.64-10.91,16.37l11.17,19.16c-2.94-.07-7.84,1.6-10.87-.14ZM610.24,255.59c3.45-1,4.37-4.16,4.36-6.72s-1.37-5.38-4.31-6.23c-3.86-1.11-7.76-.89-11.61-.34-.11,4.85-.31,8.96.17,13.58,3.62.22,7.4.86,11.38-.29Z"/>
        <path class="cls-1" d="M305.33,267.83c2.89,4.76,7.62,6.51,12.08,6.71,5.22.24,8.41-2.82,12.03-6.45,2.72-1.88,7.75-.2,11.22-.43-3.48,12.06-13.75,15.83-24.87,15.58-13.5-.3-23.23-10.82-23.48-24.51-.28-15.22,11.39-26.73,26.8-25.75,9.69.61,18.41,5.58,21.61,15.64-3.78.88-7.17.3-11.21.45-3.42-5.42-8.61-7.73-14.89-6.69-5.36.89-9.89,4.99-11.28,11.22-1.05,4.69-.71,9.8,1.98,14.24Z"/>
        <path class="cls-1" d="M156.2,258.87c5.38,4.19,5.39,11.48,2.73,16.79-2.94,5.88-8.98,7.32-15.72,7.54-9.27.32-18.3-3.65-18.5-14.02,2.62-.04,8.37-1.9,10.25.56,2.57,3.37,4.23,6.3,9.29,5.43,2.68-.46,5.19-1.93,5.75-4.81,2.17-11.06-24.39-5.37-25.25-21.63-.32-6.05,2.12-11.49,8.08-14.02,5.68-2.41,12.08-2.54,17.93-.4s9.15,6.8,9.26,12.86c-3.42-.51-8.09,1.23-10.64-.75-2.23-2.87-3.95-5.55-8.17-5.1-2.96.32-5.26,1.69-5.81,4.73-1.4,7.73,13.35,7,20.8,12.81Z"/>
        <path class="cls-1" d="M10.19,264.46l-.22,17.92c-3.17,1.09-6.37.5-9.97.43v-49.23c7.5.09,14.63-.41,21.85.23,8.57.75,14.23,7.14,14.27,14.95.04,7.97-5.54,14.85-14.11,15.21l-11.83.49ZM22.11,254.95c3.13-1.28,3.6-4.58,3.33-7.16-.74-7.29-9.58-6.1-15.36-5.48l-.04,13.19c3.7.38,7.98,1.12,12.07-.55Z"/>
        <path class="cls-1" d="M92.15,261.69l-16.38.32c-.32,4.32-.42,8.15.07,12.57l17.94.23c1.29,2.25.89,4.97.44,8l-28.63-.02v-49.08s28.34-.17,28.34-.17c1.08,2.46.79,5.16.21,7.97l-18.24.39c-.65,4.08-.36,7.67-.11,11.97l16.05.31c1.04,2.3.73,4.85.31,7.52Z"/>
        <path class="cls-1" d="M212.45,282.44c-3.48.9-6.63.53-10.27.34l-.03-40.84c-4.31-1.03-8.48.82-12.32-.79-1.62-.96-.95-5.44-.27-7.57l35.67-.03c.68,2.92.59,5.39-.03,7.95l-12.66.47-.09,40.48Z"/>
        <path class="cls-1" d="M545.69,282.52c-3.51.86-6.37.47-10.12.22l-.16-40.67-12.77-.5c-.55-2.67-.65-5.09-.14-8.05l35.59.2c1.4,1.7,1.4,6.4-.16,7.64l-12.11.68-.12,40.5Z"/>
        <path class="cls-1" d="M759.12,275.48c2.16.47,1.02,5.25.92,7.42l-25.3-.02v-49.12c3.57-.41,6.37-.38,10.05-.02l.43,41.15c4.76.69,8.59-.57,13.9.59Z"/>
      </g>
    </g>
  </g>
</svg>