<?xml version="1.0" encoding="UTF-8"?>
<svg id="Layer_2" data-name="Layer 2" xmlns="http://www.w3.org/2000/svg" viewBox="0 0 826.73 210.78">
  <defs>
    <style>
      .cls-1 {
        fill: #fff;
      }
    </style>
  </defs>
  <g id="Layer_1-2" data-name="Layer 1">
    <g id="mXTfFG.tif">
      <g>
        <g>
          <path class="cls-1" d="M414.31,150.98l-14.63-28.7-18.36.02-.1,28.52c-5.66.49-11.02.22-17.48.11l-.13-91.1,41.91-.16c14.66-.06,27.26,10.86,30.05,24.04,3.15,14.87-3.58,28.88-17.51,35.44l15.51,31.74-19.27.09ZM403.89,105.27c8.82-.03,14.57-7.58,14.09-15.45-.45-7.36-6.52-13.57-14.58-13.57l-22.12-.02v29.13s22.61-.08,22.61-.08Z"/>
          <path class="cls-1" d="M327.27,114.14l-19.45-.65c-.11-5.86-.35-11.16.15-16.67h36.21s0,39.79,0,39.79c-11.45,12.83-27.48,18.47-44.74,15.86-15-2.27-29.72-12.05-36.62-27.24-5.72-12.6-5.74-27.19-.12-39.87,7.29-16.45,23.07-26.54,40.88-27.8,14.7-1.04,28.48,3.65,38.38,14.27l-12.18,11.72c-10.8-11.52-28.06-13.35-40.49-3.67-15.93,12.4-16.48,36.02-1.52,49.34,11.61,10.34,28.46,10.11,39.61-.29l-.11-14.77Z"/>
          <path class="cls-1" d="M512.67,113.61l-41.14.21c-.49,7.11-.52,13.11.03,20.24l49.18.2c.64,5.59.52,11.01.07,16.76l-67.21.04-.06-91.38,67.42.07.02,16.37-49.68.27.25,20.27,41.12.38v16.58Z"/>
          <path class="cls-1" d="M596.88,113.51l-41.39.34.02,20.18,49.7.19v16.78s-67.44.02-67.44.02l-.06-91.29,67.49-.06-.08,16.51-49.63.06.02,20.41,41.15.18c.55,5.27.21,9.89.22,16.67Z"/>
          <path class="cls-1" d="M694.23,150.11c-2.49,2.3-4.83.57-6.8-1.49l-47.51-49.78-.51,52.06-17.54.06-.04-90.85c1.48-.64,4.03-1.01,5.22.23l49.25,51.77.37-52.41,17.43.15.12,90.26Z"/>
          <polygon class="cls-1" points="787.45 90.39 826.73 150.76 805.89 150.98 786.27 121.59 766.64 150.93 745.76 150.87 775.56 105.25 745.88 59.91 766.72 59.76 786.27 88.93 805.8 59.71 826.62 59.93 807.06 89.66 787.45 90.39"/>
          <rect class="cls-1" x="713.81" y="59.64" width="17.66" height="91.42"/>
        </g>
        <g>
          <path class="cls-1" d="M114.25,210.78h-1.66l-.4-27.62c9.21-1.83,17.82-4.03,26.28-8.43,28.23-14.72,35.95-46.55,27.45-76.15l-39.69,22.75c-.58,5-.69,9.44.11,14.68l29.1-16.34c2.2,27.54-15.37,45.9-43.22,50.1l.1-131.41c17.45,14.8,29.23,33.18,37.62,53.4,4.52-2.43,7.76-4.15,11.58-6.78-11.51-27.45-30.33-51.12-55.99-67.76-35.08,21.68-68.94,73.08-62.62,115.85,5.04,29.85,26.86,45.49,56.14,49.98l-.27,27.75h-1.66C47.16,205.04,7.69,169.12.92,118.69-6.95,59.96,36.49,5.67,97.53.35c5.79-.51,10.55-.43,16.22.04,55.48,4.57,97.67,50.54,97.42,105.3-.25,55.32-42.19,99.13-96.93,105.09Z"/>
          <g>
            <path class="cls-1" d="M99.02,169.73c-27.36-3.96-45.45-21.65-43.55-50.21l43.63,24.86-.09,25.35Z"/>
            <path class="cls-1" d="M98.96,129.23l-41.66-23.96c1.87-8.11,4.34-15.69,8.28-22.95l33.45,19.22-.06,27.69Z"/>
            <path class="cls-1" d="M99.07,86.27l-27.43-15.47c7.14-12.41,16.1-23,27.3-32.69l.13,48.16Z"/>
          </g>
        </g>
      </g>
    </g>
  </g>
</svg>