<?xml version="1.0" encoding="UTF-8"?>
<svg id="Layer_2" data-name="Layer 2" xmlns="http://www.w3.org/2000/svg" viewBox="0 0 826.73 257.75">
  <defs>
    <style>
      .cls-1 {
        fill: #fff;
      }
    </style>
  </defs>
  <g id="Layer_1-2" data-name="Layer 1">
    <g>
      <path class="cls-1" d="M173.9,162.97l-43.25-.29.13-54.77,119.51-.06v144.61s-50.72-.11-50.72-.11l-5.76-25.15c-12.79,15.24-29.02,24.03-47.64,28.26-9.19,2.09-17.99,1.97-27.53,2.23-46.37,1.26-86.66-22.26-105.65-65.02C-2.7,157.32-4.34,112.5,8.95,76.25,19.8,46.66,41.66,22.99,70.67,10.74,95.87.09,115.31-.62,142.39.28c20.96,1.39,40.94,6.84,58.98,17.5,26.83,15.72,44.76,42.06,48.83,73.33l-80.24.09c-4.28-11.52-13.25-19.51-25.07-22.61-1.99-1-4.35-.36-6.37-1.8-5.82-.16-11.53-.55-17.15.36-25.75,4.16-36.28,23.78-38.87,47.92-1.63,15.21-.92,34.27,4.72,48.76,9.32,23.99,31.46,30.88,55.5,26.71,14.7-2.55,26.95-12.18,31.19-27.58Z"/>
      <g>
        <path class="cls-1" d="M491.08,222.05c1.03,11.15.62,18.85,5.86,30.28l-79.59.15c-4.3-7.79-4.61-16.53-5.09-25.31l-1.04-19.21c-.71-13.03.37-33.4-20.27-35.41-3.36-.33-6.25-1.21-9.76-1.18l-28.09.24c-1.04,6.13-.33,11.82-.31,17.98l.19,60.6c-.24,1.22-.71,2.33-2.21,2.32l-76.59-.15V5.71s126.71-.26,126.71-.26c5.28-.01,9.82.14,15.04,1.05,14.79.8,29.11,4.7,42.1,11.35,27.66,14.17,35.91,43.84,32.06,72.85-4.81,36.22-33.67,43.66-34.27,45.77-.64,2.26,17.7,5.02,26.66,26.35,6.37,15.19,5.84,29.57,7.33,45.6l1.26,13.62ZM410.49,86.71c-.35-13.88-10.54-20.05-23.46-20.87l-33.96.02c-.65,4.02-.53,7.7-.48,11.67l.43,36.92c13.57.21,29.72,1.48,42.09-1.35,14-3.21,15.67-14.99,15.39-26.39Z"/>
        <g>
          <path class="cls-1" d="M758.23,79.78l.22,171.91-77.71.03-.04-179.33-68.15-.04.06-66.49,214.11-.02-.02,66.51-67.81.03c-.59,2.6-.45,4.56-.66,7.38Z"/>
          <rect class="cls-1" x="431.01" y="89.76" width="246.81" height="78.67" transform="translate(425.3 683.5) rotate(-90)"/>
        </g>
      </g>
    </g>
  </g>
</svg>