<?xml version="1.0" encoding="UTF-8"?>
<svg id="Layer_2" data-name="Layer 2" xmlns="http://www.w3.org/2000/svg" viewBox="0 0 826.73 190.32">
  <defs>
    <style>
      .cls-1 {
        fill: #fff;
      }
    </style>
  </defs>
  <g id="Layer_1-2" data-name="Layer 1">
    <g id="nb1gH0">
      <g>
        <g>
          <path class="cls-1" d="M513.48,132.18c-22.35,20.42-58.46,19.36-79.22-3-18.84-20.3-17.58-52.99,3.25-71.85s51.51-19.09,72.87-2.41c24.71,19.3,25.89,56.43,3.1,77.25ZM495.68,105.88c3.12-7.25,3-15.34-.16-22.36-3.53-7.86-11.44-12.54-19.67-12.72s-16.32,4.17-20.21,11.88-3.82,16.58-.15,24.13c3.83,7.88,11.92,12.38,20.37,12.16,8.37-.21,16.32-4.96,19.82-13.09Z"/>
          <path class="cls-1" d="M795.61,120.56c5.64-2.03,12.53-2.71,16.28,2.88l7.02,10.46c-2.9,3.35-6.32,5.48-10.25,7.28-16.19,7.41-37.68,8.71-54.39,1.85-14.11-5.8-24.53-17.36-28.48-32.12-2.42-9.04-2.7-18.27-.69-27.42,6.44-29.21,35.24-44.85,63.79-38.49,14.64,3.32,26.4,13.09,32.61,26.71,4.73,10.39,6.49,21.77,4.25,33.09l-69.18.03c.78,5.44,3.75,9.83,7.89,13,8.73,6.7,21.12,6.33,31.15,2.72ZM796.92,84.98c-1.08-9.03-7.54-15.37-15.98-16.6-4.92-.75-9.76-.42-14.29,1.74-5.78,2.91-9.44,8.58-10.42,14.92l40.69-.05Z"/>
          <path class="cls-1" d="M611.16,93.15l43.38,51.8-36.94.1-25.47-29.66-25.5,29.65-36.97-.05,43.39-51.87-41.7-48.43,29.91.04c5.72.07,10.56,2.14,14.43,6.3l16.44,19.38,21.36-25.47h39.02s-41.34,48.21-41.34,48.21Z"/>
          <rect class="cls-1" x="670.23" y="44.14" width="31.66" height="99.92"/>
        </g>
        <g>
          <path class="cls-1" d="M360.1,72.59c-8.72-3-19.02.36-21.93,9.85-.93,2.79-1.18,5.41-1.37,8.45v54.62s-31.03,0-31.03,0v-53.81c-.12-3.12-.33-5.9-1.23-8.74-1.89-7.25-8.31-11.57-15.77-11.41-10.11.23-14.75,5.9-15.35,15.83l-.04,58.12h-31.03s.05-66.76.05-66.76c.41-14.58,9.09-26.55,22.55-31.97,17.72-6.73,43.45-5.29,56.61,10.8,13.12-16.01,37.91-17.58,56-10.81,13.48,5.4,22.53,17.52,22.55,32.14l.12,66.98c-8.53,1.25-20.53,1.16-26.96-5.16-2.72-2.53-4.12-5.69-4.12-9.46v-41.96c0-7.05-1.84-14.23-9.05-16.71Z"/>
          <g>
            <path class="cls-1" d="M107.12,123.2l20.79.02.11-37.44c0-2.75.64-5.37,2-7.63,3.86-6.4,14.28-6.29,17.75-1.04,1.37,2.07,1.89,4.53,1.91,7.09l.23,30.95c.02,3.35,3.14,5.69,5.85,6.96,3.27,1.53,6.54,1.31,10.32,1.77l-63.49,63.44c-3.98,3.97-10.84,4-14.83.02L3,102.6c-3.99-3.99-4.01-10.88-.02-14.87L87.74,2.97c4.12-4.12,11.02-3.87,15.08.2l53.48,53.56c-13.61-4.46-29.06-3.88-38.58,7.16-8.95-10.82-26.34-11.8-38.14-7.14-8.98,3.54-14.66,11.53-15.04,21.16l-.02,45.28,20.81.03.06-39.79c.43-2.96.9-5.88,3.29-7.78,4.18-3.34,10.63-3.17,14.64.33,2.66,2.32,3.31,5.53,3.76,9.01l.05,38.21Z"/>
            <path class="cls-1" d="M170.66,119.24l-.12-38.17c.4-4.06-.71-7.6-1.46-11.56l25.74,25.65-24.16,24.08Z"/>
          </g>
        </g>
      </g>
    </g>
  </g>
</svg>