<?xml version="1.0" encoding="UTF-8"?>
<svg id="Layer_2" data-name="Layer 2" xmlns="http://www.w3.org/2000/svg" viewBox="0 0 763.37 220.41">
  <defs>
    <style>
      .cls-1 {
        fill: #fff;
      }
    </style>
  </defs>
  <g id="Layer_1-2" data-name="Layer 1">
    <g id="_29kbJC" data-name="29kbJC">
      <g>
        <g>
          <polygon class="cls-1" points="341.44 143.86 322.54 143.9 287.35 87.26 287.17 143.84 270.9 143.8 270.91 64.67 289.57 64.67 325.11 121.08 325.26 64.67 341.36 64.66 341.44 143.86"/>
          <path class="cls-1" d="M431.42,64.69l16.19-.05-.13,53.57c-.02,6.36-2.07,12.33-6.07,17.07-10.69,12.66-36.84,12.88-48.23,1.5-4.65-4.64-7.43-11.07-7.45-17.87l-.16-54.26h16.2s.06,49.89.06,49.89c0,2.45.37,4.6,1.02,6.83,2.77,9.44,14.27,11.31,21.43,7.42,4.72-2.56,6.98-7.48,7-12.92l.14-51.19Z"/>
          <g>
            <polygon class="cls-1" points="763.37 143.75 744.25 143.86 709.15 87.58 708.82 143.86 692.61 143.88 692.59 64.67 711.24 64.64 746.69 120.89 746.95 64.71 763.36 64.73 763.37 143.75"/>
            <path class="cls-1" d="M632.19,64.68l16.33-.03-.16,53.98c-.02,6.4-2.37,12.36-6.4,17.02-10.68,12.36-37.44,12.59-48.63.45-4.74-5.14-6.59-11.65-6.89-18.69l-.02-52.72,16.31.03v50.66c.13,7.74,3.92,13.99,11.81,15.09,4.87.68,9.97-.22,13.53-3.82,2.51-2.55,3.98-6.22,3.99-10.04l.14-51.91Z"/>
            <path class="cls-1" d="M541.91,136.52c-9.07,9.11-24.5,10.06-36.19,6.88-10.18-2.77-18.88-10.41-20.23-21.28l16.74-3.76c.67,5.9,4.4,10.55,9.92,12.38,6.11,2.03,15.95,1.31,18.11-5.14,2.72-8.14-4.45-12.25-11.38-14.5-8.54-2.77-22.78-5.98-27.7-13.93-7.27-11.74-1.27-26.84,11.71-31.39,15.89-5.56,40.59-1.06,44.21,18.47l-15.74,3.78c-.78-4.6-3.38-8.55-7.73-10.11s-9.01-1.43-13.26.03c-4.81,1.65-7.31,7.06-4.75,11.51,1.49,2.59,4.36,3.97,7.11,4.86l16.28,5.27c5.2,1.68,9.91,4.16,13.69,8.18,7.09,7.55,6.31,21.6-.79,28.74Z"/>
          </g>
        </g>
        <g>
          <path class="cls-1" d="M185.99,220.41l-15.38-.17c-4.51-.05-7.98-2.52-10.73-5.87l-7.7-9.38c-39.39,19.17-86.16,12.33-118.18-17.26C13,168.34.98,141.62.06,113.06c-.07-2.15-.08-3.62,0-5.8.98-27.54,12.1-53.38,32.04-72.64l10.1,12.07c-36.2,36.2-34.9,95.47,3.1,129.99,25.78,23.42,63.63,30.16,96.43,15.64l-62.28-75.59c-1.24-1.51-2.1-2.84-3.71-3.86l-.14,33.01-13.65-16.21c-1.55-1.84-2.43-4.09-2.43-6.56v-48.57c2.16-.15,4.71-.71,6.6.61l119.88,145.24Z"/>
          <path class="cls-1" d="M175.82,54c-1.36-1.12-2.4-2.47-3.46-3.83-1.8-2.31-3.73-4.01-5.91-6.01-15.72-14.37-35.89-22.88-57.31-23.57-13.68-.44-27.01,1.71-39.63,7.59l65.82,79.62.34-33.43,13.07,15.59c2.25,2.68,3.07,5.29,3.07,8.83l-.05,47.26c-2.98.03-5.34.73-7.38-1.74L25.29,0l15.63.18c8.31.1,12.91,9.95,18.24,15.26C97.8-3.52,144.23,2.9,176.08,31.72c45.37,40.57,47.16,111.3,3.07,154.11l-10.01-12.17c30.68-30.71,34.95-79.22,10.13-114.79-1.1-1.58-2.52-2.97-3.45-4.88Z"/>
        </g>
      </g>
    </g>
  </g>
</svg>