<?xml version="1.0" encoding="UTF-8"?>
<svg id="Layer_2" data-name="Layer 2" xmlns="http://www.w3.org/2000/svg" viewBox="0 0 821.61 413.01">
  <defs>
    <style>
      .cls-1 {
        fill: #fff;
      }
    </style>
  </defs>
  <g id="Layer_1-2" data-name="Layer 1">
    <g id="czlG4F.tif">
      <g>
        <path class="cls-1" d="M384.54,47.94c-1.6-.86-2.64-1.19-3.92-.3L59.73,269.24H1.86S382.41,0,382.41,0l392.71,269.29-57.84-.05L384.54,47.94Z"/>
        <g>
          <path class="cls-1" d="M369.02,278.36c-12.86-3.86-24.15-8.88-35.88-14.46-13.67,3.45-26.95,4.56-40.9,4.68-14.84.13-29.12-.85-43.41-4.57-23.61-6.37-45-21.18-44.8-48.06.09-12.82,4.98-24.35,14.73-32.81,18.96-16.43,47.29-19.82,71.75-19.75,23.54.06,51.91,3.38,70.32,18.92,9.51,8.03,14.47,18.95,15.04,31.33.69,15.13-5.36,28.94-17.55,37.93-.67.5-.5,1.7-.45,2.48.05.72.97,1.3,2.03,1.58,6.81,3.02,13.44,5.69,20.87,7.71l-11.77,15.01ZM282.53,236.84l5.76-8.44c5.1.18,9.82,1.44,14.48,3.39l14.56,6.1c.88.37,2.42.62,3.17-.1,7.44-7.09,7.85-23.1,5.54-32.75-3.79-15.84-20.51-20.47-34.95-20.75-15.06-.29-33.45,4.64-37.33,21.23-2.38,10.19-1.21,26.01,6.91,33.34,10.06,9.08,26.6,10.23,39.43,8.43,1.24-.17,1.28-1.51,1.28-2.28.01-2.94-15.93-7.17-18.86-8.17Z"/>
          <path class="cls-1" d="M532.19,228.03c5.08,3.1,9.3,6.53,13.61,10.33l23.33,28.32-53.89.12-29.8-34.23c-2.75-3.15-6.01-5.3-9.84-6.76-5.91-1.78-12.03-2.43-18.19-1.18l-.1,42.12-48.77.02-.03-101.59,92.35.06c10.15,0,19.54.72,29.33,2.31,7.57,1.53,14.47,4.26,20.17,9.22,9.04,7.85,10.19,20.79,1.89,29.6-8.5,9.02-20.59,11.78-32.33,13.73-1.44.24-2.23.67-2.28,1.88-.05,1.35.43,2.04,1.9,2.34,4.27.87,8.42,1.85,12.65,3.69ZM498.56,205.69c4.02-.89,7.68-3.24,9.42-6.66,2.74-5.4-.41-11.35-5.85-13.58-4.58-1.88-9.34-2.57-14.42-2.59l-27.58-.15c-.96,0-2.72.59-2.72,1.67v21.78c0,1.07,1.77,1.67,2.71,1.67l22.43-.09c5.37-.02,10.5-.84,16.01-2.06Z"/>
        </g>
        <g>
          <rect class="cls-1" y="309.48" width="777" height="9.97"/>
          <path class="cls-1" d="M696.85,382.1l-11.34-.03-26.06-28.01c-.81-.87-4.06-1.77-4.07-.15l-.11,28.13c-3.2.25-5.92.27-9.2,0l-.06-41.24c3.61-.54,6.91-.15,10.77-.21l26.81,28.91c.73.78,3.88,1.93,3.89.36l.32-29.19c3.11-.23,5.95-.15,9.04-.02l.02,41.45Z"/>
          <path class="cls-1" d="M67.41,383.3c.46.83-1.12,2.2-1.85,2.78-1.55,1.25-11.72-4.2-14.43-5.02-12.67,3.19-34.23,3.53-43.22-8.1-5.03-6.51-5.23-16.28-.15-22.94,8.66-11.37,29.71-11.67,42.3-8.29,4.15,1.11,7.83,2.96,11.01,5.96,7.77,7.32,7.84,20.54-.24,27.61-1.32,1.16-3.3,2.89-1.39,4.57,2.01,1.77,5.49,1.95,7.96,3.44ZM36.4,371.25c1.28-1.29,9.35,2.41,11.87,3.43,4.95,2,13.23-15.01,3.82-24.98-6.9-7.32-23.74-7.81-32.3-.95-3.96,3.17-5.23,8.18-5.23,13.12,0,7.12,3.81,12.88,10.49,15.42,5.26,1.99,11.23,2.56,16.64.88.92-.29.38-2.95-.41-3.34-2.7-1.34-6.79-1.64-4.87-3.57Z"/>
          <path class="cls-1" d="M379.12,366.38c6.64,2.43,13.58,9.75,17.94,15.6-3.66.45-6.85.21-10.51.16-4.2-4.65-8.74-8.54-13.13-12.86-3.88-3.82-8.18-6.3-13.94-5.96-2.13.13-4.5-.51-6.66.57l-.26,18.16c-3.3.32-6.34.15-10.08.1l-.07-41.55,30.86.05c4.14,0,8,.41,12,1.1,3.71.94,7.06,3.02,8.75,6.48,1.99,4.07,0,8.33-3.72,10.62-6.93,4.27-12.79,1.84-12.93,5.05-.06,1.32.41,1.98,1.77,2.48ZM378.7,345.33c-3.3-.99-21.51-1.04-25.87-.6-.37,5.08-.4,9.64.02,14.9,8.5.19,16.86.69,25.03-.58,3.79-.59,6.31-3.38,6.42-6.61.11-3.44-1.82-5.98-5.61-7.11Z"/>
          <path class="cls-1" d="M541.1,374.42c-9.35,9.57-28.05,9.92-40.03,6.89-6.15-1.56-11.85-4.74-15.13-10.26-3.68-6.19-3.35-14.53.79-20.37,3.45-4.87,8.73-7.86,14.47-9.26,12.65-3.08,33.25-2.51,41.59,9.15,5.19,7.25,4.56,17.45-1.69,23.85ZM527.4,375.99c5.99-3.08,8.18-8.51,8.25-14.67.08-6.98-2.99-12.64-9.69-15.33-7.07-2.84-15.3-2.8-22.42.09-6.54,2.66-9.67,8.44-9.67,15.23,0,6.78,3.16,12.52,9.6,15.27,7.54,3.22,16.41,3.27,23.93-.59Z"/>
          <path class="cls-1" d="M459.51,379.31c-12.72,5.89-39.22,5.7-47.8-7.68-3.82-5.96-3.94-14.16-.1-20.21,7.82-12.31,27.7-12.99,40.47-10.36,12.97,2.67,22.01,11.87,18.99,25.32-1.25,5.56-5.71,10.22-11.56,12.93ZM457.54,372.29c5.32-6.37,5.84-20.99-5.34-25.97-7.26-3.23-15.61-3.21-22.99-.39-6.17,2.36-9.63,7.67-9.87,14.24-.18,4.96.99,10.13,4.89,13.44,9.05,7.67,26.44,6.93,33.32-1.31Z"/>
          <path class="cls-1" d="M283.33,363.13l18.33,18.67c-3.91.87-7.66.19-11.87.41l-17.56-19.79c-1.21-1.37-2.79-1.69-4.31-.62l-11.05,7.72-.25,12.55c-3.2.28-6.03.14-9.74.08l-.07-41.45c3.38-.23,6.45-.17,9.77-.03l.37,18.81c.03,1.57,3.01.92,3.91.28l26.71-19.12c3.55-.35,7.32-.04,11.16.11l-18.73,13.02c-.76.53-1.74.64-1.85,1.25-.59,3.31-.06,2.78,5.18,8.12Z"/>
          <path class="cls-1" d="M762.75,374.52c.38-3.1.54-5.91-.15-8.67-5.09-.93-9.92.09-15.1-.58-.85-.11-.54-2.46-.27-3.51l26.05-.02-.19,15.22c-15.6,7.78-47.04,10.16-57.41-6.21-4.94-7.8-3.14-17.41,3.72-23.3,3.57-3.06,7.65-5.14,12.43-6.19,10.92-2.4,33.14-3.03,39.38,8.27-3.37.74-6.35,1.06-9.52,1.26-6.15-8.71-21.22-8.1-29.55-4.36-6,2.7-8.73,8.02-8.87,14.26-.17,7.91,3.92,14.17,11.66,16.69,9.11,2.97,18.9,1.5,27.82-2.88Z"/>
          <path class="cls-1" d="M132.35,340.61l-.15,27.24c-.07,13.18-13.22,15.16-23.93,15.07-5.32-.04-10.42.05-15.47-1.53-9.02-2.84-11.4-7.17-11.43-16.61l-.08-24.13h10.15s.1,27.56.1,27.56c.04,11.7,16.36,12.01,24.36,9.43,4.14-1.34,6.18-4.68,6.2-8.88l.13-28.11,10.12-.03Z"/>
          <path class="cls-1" d="M187.22,370.47c3.64,8.19,16.93,10.45,26.03,6.62,3.42-1.44,5.63-4.26,7.5-7.38l9.07,1.99c-6.45,12.36-26.25,12.71-37.56,9.77-12.75-3.31-20.38-13.7-16.25-26.47,1.61-4.96,5.76-9.37,11.54-11.84,11.21-4.79,33.86-5.8,41.89,6.29-3.03,1.21-5.93,1.16-9.19,1.82-6.33-10.91-28.99-9.11-33.22,1.29-2.34,5.74-2.34,12.22.19,17.92Z"/>
          <path class="cls-1" d="M573.16,358.95l26.36.12c.3,1.22.2,2.14.05,3.65l-28.3.33-.29,18.98c-3.3.33-6.33.17-10.1.11l-.04-41.58h43.02c.71.92.41,2.21.22,3.72l-32.76.31c-.57,4.3-.21,8.08-.29,12.15-.02,1.07.64,2.18,2.12,2.19Z"/>
          <rect class="cls-1" x="150.24" y="340.56" width="10.2" height="41.64"/>
          <rect class="cls-1" x="618.9" y="340.56" width="10.21" height="41.65"/>
          <path class="cls-1" d="M776.9,413.01H.19l.12-10.16h776.44c.54,3.52.18,6.93.15,10.16Z"/>
          <g>
            <path class="cls-1" d="M821.61,392.57c0,8.87-7.19,16.06-16.07,16.06s-16.07-7.19-16.07-16.06,7.19-16.06,16.07-16.06,16.07,7.19,16.07,16.06ZM818.88,392.57c0-7.35-5.97-13.32-13.33-13.32s-13.33,5.96-13.33,13.32,5.97,13.32,13.33,13.32,13.33-5.96,13.33-13.32Z"/>
            <path class="cls-1" d="M811.87,399.63c-4.94,1.96-3.51-6.05-9.1-4.26l-.18,3.97c-.04.93-2.43.92-2.43-.04l.03-14.07c4.5-.16,10.57-1.28,11.54,4.07.43,2.36-.8,4.25-2.85,5.79l2.97,4.54ZM808.41,392.48c1.08-1.34,1.41-3.69-.12-4.54-1.63-.91-3.69-.48-5.46-.25-.33,1.88-.27,3.29-.02,4.98,1.91.28,3.57.41,5.6-.19Z"/>
          </g>
        </g>
      </g>
    </g>
  </g>
</svg>