<?xml version="1.0" encoding="UTF-8"?>
<svg id="Layer_2" data-name="Layer 2" xmlns="http://www.w3.org/2000/svg" viewBox="0 0 824.84 167.72">
  <defs>
    <style>
      .cls-1 {
        fill: #fff;
      }
    </style>
  </defs>
  <g id="Layer_1-2" data-name="Layer 1">
    <g id="MVbNFH.tif">
      <g>
        <path class="cls-1" d="M810.71,88.94l-90.41.07v68.53s103.51.03,103.51.03c1.2,3.39,1.25,6.74-.03,10.14l-123.69-.04V.23s123.84-.14,123.84-.14c1.38,3.11.92,6.37.32,10.11l-103.96.08v68.53s90.36.06,90.36.06c.65,3.28.68,5.95.05,10.08Z"/>
        <path class="cls-1" d="M464.24,167.54L396.47,22.42l-65.05,144.18c-3.38,1.31-6.38,1.4-9.97-.06L396.25.62c4.62-.96,8.9-.63,13.99-.19l74.9,166.59-20.89.53Z"/>
        <path class="cls-1" d="M549.83,136.78c22.71,28.54,67.22,28.05,88.76-.24,3.81,2.9,6.38,5.96,9.88,9.62-28.66,25.61-68.95,28.88-100.71,6.38-41.24-29.21-47.92-86.25-15.01-124.12,29.85-34.35,82.37-38.38,115.81-6.87l-10,9.58c-10.55-13.93-25.64-20.91-42.68-21.43-20.52-.62-38.22,8.96-49.58,25.95-18.93,28.29-18.5,73.44,3.53,101.13Z"/>
        <g>
          <path class="cls-1" d="M104.95,153.62c-29.8,20.73-79.38,19.15-104.95-9.42,1.49-2.77,4.04-4.69,6.87-6.79,7.84,8.29,17.13,14.38,28.55,17.46,20.02,5.4,49.13,4.78,63.48-12.34,10.3-12.3,7.51-29.28-5.8-37.65-24.56-15.45-46.25-14.71-72.53-31.63-10.82-6.97-16.94-17.52-17.47-29.3-.57-12.65,5.29-23.32,15.67-30.93C29.57,5.1,41.95,1.79,55.5.5c23.4-2.24,45.83,5.46,62.13,22.35-2.45,2.81-4.37,4.72-7.29,6.45C91.13,9.09,59.88,3.47,35.28,16.73c-12.2,6.57-15.63,20.58-8.16,31.68,4.11,6.11,10.51,10.29,17.27,13.37,23.37,10.65,39.91,12.4,62.66,25.82,17.5,10.32,23.29,31.86,13.25,49.56-3.78,6.66-9.06,12.08-15.36,16.46Z"/>
          <path class="cls-1" d="M176.08,167.41l-.27-78.47,70.4.03c14.85,0,27.97-5.82,34.57-19.88,5.81-12.37,5.74-28.01-.55-40.35s-17.21-18.67-30.2-18.7l-73.89-.19c-.53-3.73-.52-6.45.16-9.74l74.2.05c28.56.02,55.62,18.38,56.28,48.21.35,15.92-6.93,30-20.57,39.49-10.87,7.82-24.18,10.97-37.87,10.96h-52.28s-.02,68.21-.02,68.21c-6.34.78-11.19.2-19.95.37Z"/>
        </g>
      </g>
    </g>
  </g>
</svg>