<?xml version="1.0" encoding="UTF-8"?>
<svg id="Layer_2" data-name="Layer 2" xmlns="http://www.w3.org/2000/svg" viewBox="0 0 769.44 256.5">
  <defs>
    <style>
      .cls-1 {
        fill: #fff;
      }
    </style>
  </defs>
  <g id="Layer_1-2" data-name="Layer 1">
    <g id="CH1DX3">
      <g>
        <path class="cls-1" d="M430.06,215.69c-.88,16.47-20.44,12.97-35.31,13.16-10.62.13-25.68,1.28-26.64-12.46-.5-7.09-.39-14.3-.06-21.45.64-13.71,16.31-12.52,26.07-12.45,8.28.07,16.37-.34,24.43.68,6.94.88,11.21,5.85,11.52,12.65.3,6.65.36,13.22,0,19.87ZM410.69,216.94c3.12-.16,5.19-2.56,5.25-5.23.19-8.19,2.18-17.46-5.95-17.67-7.27-.19-14.38-.3-21.64,0-7.91.32-6.45,9.55-6.15,17.27.12,3.14,2.4,5.46,5.74,5.63,7.48.38,14.96.4,22.75,0Z"/>
        <path class="cls-1" d="M347.88,228.33c-12.7.95-24.98.88-37.31-.02-4.69-.34-8.35-3.57-8.93-8-.31-2.39-.3-4.46-.08-6.9l13.71-.03c.16,1.48.05,2.58.62,3.69,1.28,2.51,20.14,1.59,24.27,1.44,2.57-.09,4.21-1.23,4.29-3.64.07-2.02-1.21-3.75-3.77-3.93-10.43-.71-20.54.46-31.22-1.14-9.15-1.38-8.85-12.78-7.49-19.58.76-3.76,4.09-6.06,7.79-6.76,7.22-1.37,30.57-1.44,37.78-.25,7.72,1.28,9.38,6.71,8.71,14.01-4.19,0-9.12.59-13.12-.15-.52-2.1-1.03-4.4-3.85-4.48-6.79-.2-13.62-.28-20.42.13-2.49.15-3.69,1.78-3.64,3.79.06,2.34,1.6,3.3,4.09,3.46,10,.64,22.7-.53,31.48,1.49,4.12.94,6.64,3.91,7.14,8.05s.83,8.62-.74,12.81c-1.33,3.55-5.02,5.7-9.32,6.02Z"/>
        <polygon class="cls-1" points="769.44 160.72 747.5 160.69 720.8 128.03 720.54 160.64 706.65 160.68 706.56 115.75 728.45 115.54 755.31 148.6 755.59 115.59 769.37 115.54 769.44 160.72"/>
        <path class="cls-1" d="M348.1,160.76c-12.34.93-23.94.84-35.86.13-3-.18-6.35-1.23-8.26-3.36-2.87-3.2-2.85-7.76-2.27-11.7l13.58.04c.09,1.65.02,2.8.65,3.8.5.79,1.95,1.43,3.35,1.47,7.02.19,13.88.25,20.88-.04,2.65-.11,4.48-1,4.48-3.44s-1.11-3.95-3.89-4.04l-28.31-.99c-4.18-.15-8.29-1.8-9.94-5.72-1.4-3.32-1.1-6.94-1.03-10.57.1-5.45,3.83-9.69,9.48-10.36,12.11-1.43,24.35-1.32,36.54-.18,7.48.7,9.81,7.56,8.92,14.18l-13.16.1c.03-2.78-1.43-4.58-4.12-4.7-6.72-.3-13.42-.28-20.15.06-2.5.13-3.86,1.56-3.75,3.8s1.45,3.4,4.02,3.44l13.95.22c6.89.11,21.8-1.29,24.15,6.59,1.48,4.98,1.63,10.53-.09,15.47-1.21,3.49-5.14,5.49-9.17,5.79Z"/>
        <path class="cls-1" d="M622.53,228.23l-13.48.06c-.91-2.37,1.42-11.64-3.98-11.66l-24.95-.1-.22,11.75h-13.86s0-45.42,0-45.42l44.95.14c4.87.02,9.18,2.32,10.99,6.68,1.09,4.39.96,8.91.49,13.42s-3.7,6.43-7.94,7.42c4.73.96,7.94,3.39,7.96,7.88l.05,9.83ZM609.2,199.06c.13-3.18-1.59-4.94-4.47-4.95l-24.51-.1c-.29,3.88-.38,7.48-.02,11.33l23.87-.09c1.69,0,3.31-.37,4.17-1.45.91-1.15.88-2.76.96-4.74Z"/>
        <path class="cls-1" d="M562.23,160.64l-13.85.07c-.69-3.66,1.72-11.5-4.63-11.52l-24.15-.07-.29,11.62-13.79-.06-.11-45.14,45.76.27c4.76.03,8.85,2.55,10.5,6.74,1.18,4.71,1.25,9.59.26,14.34-.75,3.61-3.84,4.97-7.52,6.36,4.21.46,7.33,3.01,7.66,7.39.23,3.14.13,6.04.16,9.99ZM547.49,128.03c-.83-.8-2.15-1.15-3.63-1.14l-24.26.04c-.28,3.98-.29,7.48.04,11.21l24.17-.04c1.67,0,3.27-.41,4.12-1.57,1.23-1.68,1.51-6.63-.44-8.5Z"/>
        <path class="cls-1" d="M423.33,140.7c-1.03,5.43-5.66,8.46-10.86,8.53l-28.89.41-.21,11.08-14.08-.05v-45.1s38.09.01,38.09.01c3.65,0,7.02.44,10.24,1.96,7.55,3.17,7.05,16.11,5.71,23.16ZM410.16,132.47c.24-3.45-1.52-5.5-4.6-5.51l-21.8-.06c-.44,3.74-.21,7.33-.11,11.3l21.75.05c1.59,0,3.13-.66,3.89-1.57.87-1.04.76-2.5.88-4.21Z"/>
        <path class="cls-1" d="M538.85,220.11l-29.27-.08-4.57,8.32-15.29-.18,24.98-45.22,18.69-.12,24.94,45.25-15.11.27-4.37-8.26ZM533.07,209.72l-8.94-16.66-8.91,16.85c6.31.1,11.99.39,17.85-.2Z"/>
        <path class="cls-1" d="M477.88,152.6l-28.62-.03-4.6,8.09c-5.13-.04-10.15.46-15.15-.27l24.74-44.79,18.37.02,24.83,44.98-15.04.08-4.52-8.08ZM472.4,142.17l-9.03-16.19-8.69,16.37c6.26.08,11.62.43,17.72-.19Z"/>
        <path class="cls-1" d="M679.41,152.61l-29.58-.09-4.13,8.1h-15.51s24.99-44.92,24.99-44.92l18.31-.2,25.26,44.88c-5.05.76-10.03.19-15.2.35l-4.12-8.13ZM673.37,142.21l-8.8-16.2-8.98,16.44,17.78-.24Z"/>
        <path class="cls-1" d="M605.61,160.55c-5.05.4-9.39.24-14.19.1l-.04-33.6-19.96-.25c-.04-3.86-.23-7.35.21-11.26h53.48c.42,3.89.13,7.39.15,11.19l-19.51.26-.14,33.56Z"/>
        <path class="cls-1" d="M485.47,216.75c.51,3.78.28,7.48.24,11.6l-44.94-.05v-45.21s13.96-.23,13.96-.23l.12,33.81,30.63.08Z"/>
        <g>
          <path class="cls-1" d="M269.67,252.9c-22.57,7.38-52.31,2.12-74.68-4.19l-17.32-23.36-26.88-36.16c2.37,7.17,5.91,13.16,9.02,19.9l16.85,36.49c-24.64-4.06-49.99-4.94-74.2,3.48,8.52-23.08,9.1-39.04,3.11-62.42-5.12-19.99-5.36-39.11,9.97-54.57,15.97-16.1,37.44-20.65,59.93-19.09-11.34-5.75-28.01-5.08-39.61-3.39,9.16-6.35,19.76-8.64,30.55-8.96,21.12-.63,39.34,11.02,51.68,27.59-9.52,7.09-19.83,10.62-31.5,14.21,12.67.55,25.29-2.47,37.02-8.5,7.25,9.75,12.88,20.08,17.62,31.2l10.83,25.39c2.96,6.95,6.61,13.15,10.87,19.71-15.68,1.8-24.48-20.36-27.3-32.86-15.61-1.46-30.98-2-47.62-2.28,11.37,15.83,26.06,19.06,45.07,14.98,5.7,23.45,20.97,44.57,36.61,62.85Z"/>
          <path class="cls-1" d="M77.7,179.49l-52.86-3.83,51.26-8.57c.33-2.5.42-4.57-.2-6.7l-46.34-14.57L0,136.79c4.97-.61,9.26.29,14.12.58l64.59,3.83c.96-2.32,1.77-4.09,2.1-6.54l-37.62-24.07,42.71,12.93,4.4-7.61-48.43-56.24,60.36,41.66,6.27-5.26-16.9-36.72,26.94,29.96,7.7-4.01-3.26-18.31L111.92,0l32.54,79c3.17-.52,5.67-.75,8.12-1.85l4.96-38.89,6.95,38.59c3.03.29,5.6.62,8.56.46l16.05-49.27c1.94-5.96,3.29-11.6,5.83-17.3l-4.02,70.5,7.91,3.16,23.05-34.7c-1.24,7.06-3.63,13.68-5.8,20.62l-6.32,20.22,5.86,4.56-6.42,8.62c-11.93-8.71-25.36-14.48-40.14-15.44-37.89-2.46-71.84,22.32-79.9,59.44-2.38,10.97-1.8,22.01.56,33.27-3.57,1.1-7.12,1.5-10.84,2.09-.7-.89-.45-2.34-1.17-3.58Z"/>
        </g>
      </g>
    </g>
  </g>
</svg>