<?xml version="1.0" encoding="UTF-8"?>
<svg id="Layer_2" data-name="Layer 2" xmlns="http://www.w3.org/2000/svg" viewBox="0 0 764.55 236.57">
  <defs>
    <style>
      .cls-1 {
        fill: #fff;
      }
    </style>
  </defs>
  <g id="Layer_1-2" data-name="Layer 1">
    <g id="_87slkL" data-name="87slkL">
      <g>
        <path class="cls-1" d="M85.96,111.82c.78,3.79-8.5-1.55-15.54,9.09l-22.33,33.7c.42,6.39-1.52,21.43,2.53,25.02,3.08,2.73,8,1.28,8.85,2.26.3.35.29,2.26-.25,2.26l-32.57.1c-.47-.38-.44-2-.24-2.41.27-.55,1.88-.39,2.6-.35,5.05.27,8.42-2.45,8.77-7.28.46-6.26.31-12.32.22-18.77l-22.27-34.24C9.22,111.18.05,114.94,0,112.36c0-.43-.1-1.59.81-1.6l32.44-.1c1.11,0,1.64.45,1.73.95.59,3.47-3.57.46-8.05,3.65-1.08,1.7-.75,3.75.37,5.46l18.65,28.58,19.11-28.83c1.04-1.57,1.55-3.49.72-5.07-2.78-2.63-7.38-1.26-8.45-2.46-.39-.44-.34-2.12.61-2.13l26.29-.13c1.01,0,1.58.43,1.72,1.14Z"/>
        <path class="cls-1" d="M133.14,157.74c0,16.19-13.13,29.32-29.32,29.32s-29.32-13.13-29.32-29.32,13.13-29.32,29.32-29.32,29.32,13.13,29.32,29.32ZM121.11,169.79c3.34-7.97,3.2-16.62-.05-24.27-3.13-7.38-9.57-11.64-17.2-11.65-7.32,0-13.82,3.97-17.04,11.07-3.56,7.85-3.65,16.67-.41,24.6,3.08,7.52,9.65,12.03,17.42,11.98s14.1-4.16,17.27-11.73Z"/>
        <path class="cls-1" d="M263.04,185.73c0,1.07-2.26.65-2.73.09l-34.86-41.66c-.27,10.36-.32,19.84.03,29.76.07,2.05.84,4.14,1.76,5.43,2.09,2.94,6.8,1.85,7.48,2.69.31.39.42,2.13-.37,2.13l-23.15-.03c-.56,0-.57-1.99-.16-2.14s1.21-.46,1.99-.42c4.22.19,6.97-2.66,7.2-6.86.62-11.32.6-22.63.02-33.96-.22-4.23-3.01-7.12-7.23-6.87-.78.05-1.58-.27-1.98-.43s-.36-2.05.09-2.08c4.97-.39,9.77-.1,15.05-.14l32.09,37.98c.42-9.45.39-18.69,0-28.04-.18-4.38-2.82-7.72-7.38-7.22-.72-.31-1.56-.13-1.79-.51-.35-.59-.59-2.23.33-2.23l21.5-.02c.75,0,1.54.04,1.76.46,1.79,3.51-4.53.93-7.23,4.05-1.18,1.36-2.01,3.64-2.03,5.93l-.39,44.08Z"/>
        <path class="cls-1" d="M677.25,185.9l-34.92-41.68c-.47,10.15-.45,20.19.05,30.29.22,4.44,3.02,7.34,7.47,7.1.7-.04,1.5.13,1.69.49.21.39.27,1.49-.12,2.11l-23.43-.03c-.44-.03-.39-1.94-.03-2.18s1.01-.46,1.85-.42c4.14.19,7.03-2.5,7.25-6.76.58-11.36.54-22.78.02-34.17-.19-4.22-3.13-7.05-7.27-6.76-.58.04-1.23-.05-1.59-.12-.43-.08-.6-1.23-.45-2.39l15.22-.16,32.13,38c.23-9.85.33-18.86-.05-28.18-.18-4.36-2.88-7.6-7.4-7.1-.71-.29-1.57-.1-1.8-.49-.34-.57-.6-2.26.37-2.26l23.28.09c.45,0,.38,1.92.04,2.18s-1.02.48-1.84.42c-4.44-.33-7.37,2.68-7.4,7.24l-.26,44.96c-.57.29-2.08.66-2.8-.2Z"/>
        <path class="cls-1" d="M465,179.33c6.81-.57,8.07-5.37,9.39-10.97.15-.65,2.48-.74,2.51.04.22,5.45-.53,10.43-.75,15.87h-54.2c-2.17-5.22,4.47-.81,8.65-4.65,1.47-1.35,2.48-3.9,2.48-6.48v-51.49c0-2.36-.94-4.65-2.2-6.02-1.86-2.02-7.38-2.42-8.67-2.27-.77.09-.86-2.48-.22-2.48l32.42-.09c2.54,4.76-4.39,1.09-8.43,4.42-1.41,1.16-2.54,3.7-2.6,6.14-.39,16.98-.47,33.77.05,50.7.13,4.09,2.73,7.06,6.61,7.33,5.05.36,10,.36,14.96-.05Z"/>
        <path class="cls-1" d="M318.83,175.38c2.9-3.69,1.48-8.55-2.54-10.33-4.35-1.92-6.47-.53-6.52-2.48-.02-.87.42-1.44,1.76-1.44l25.07.14c.63,0,.52,1.58.29,1.97-.79,1.37-7.91-.96-8.99,6.5-.56,3.9-.52,7.65-.53,11.88-4.46.48-8.6,1.38-12.83,2.93-11.03,4.04-22.97,1.17-30.57-8-5.92-7.13-8.22-16.27-5.98-25.89,1.83-7.86,7.53-15.47,15.81-19.24,9.6-4.37,20.19-2.67,27.15,5.41,2.4-2.77.98-5.45,3.34-5.67.99-.09,1.43.58,1.42,1.69l-.16,19.28c0,.62-2.29.72-2.48-.03-2.85-11.1-9.1-19.89-21.18-17.98-14.77,2.33-17.84,23.99-12.08,37.29,3.44,7.94,11.49,11.64,19.67,9.43,3.52-.95,6.9-2.35,9.34-5.46Z"/>
        <path class="cls-1" d="M725.19,181.1c5.67-1.19,12.65-4.72,11.97-10.86-.8-7.18-10.38-5.36-10.38-7.69,0-.77.42-1.37,1.48-1.37l25.09.08c.65,0,.79,1.56.51,1.95-1.06,1.44-8.06-.99-9.12,6.57-.55,3.92-.42,7.62-.63,11.86-13.25,1.28-22.26,9.49-36.23.94-9.87-6.04-14.99-16.91-13.65-28.49,1.22-10.59,8.58-20.27,19.34-23.78,9-2.94,18.03-.63,24.29,6.63,1.34-1.51,1.76-5.38,2.54-5.68.51-.19,2.18-.22,2.18.63l.03,19.95c0,.82-1.17.68-1.56.76-.7.13-1.28-.5-1.5-1.52-2.5-11.33-10.42-19.25-21.89-16.72-13.77,3.05-16.63,23.95-11.01,36.97,3.24,7.52,10.64,11.43,18.57,9.76Z"/>
        <path class="cls-1" d="M177.97,131.33l24.57-.04c.44,0,.3,1.42.3,1.7,0,1.62-4.45-.04-7.15,2.55-1.44,1.38-2.19,3.58-2.23,5.96l-.41,25.5c-.13,8.12-5.2,14.83-12.66,17.63-5.57,2.09-11.4,2.22-17.08.47-8.08-2.5-13.7-9.39-13.84-17.97l-.43-26.18c-.07-4.19-2.6-7.27-7.02-7.03-.82.04-1.63-.08-2.03-.35s-.52-2.26.12-2.26l26.08-.14c1.1,0,1.69.29,1.78,1.06.4,3.48-9.11-1.11-9.49,8.69-.34,8.91-.3,17.87-.1,26.73.19,8.12,6.32,13.06,14,13.1,7.93.05,14.55-4.92,14.84-13.28s.27-17.27-.05-25.99c-.08-2.13-.83-4.28-1.87-5.61-2.13-2.71-8.11-1.9-7.37-2.38-.25.16-.34-2.19.03-2.19Z"/>
        <path class="cls-1" d="M566.6,135.25c-1.88-1.98-6.88-1.02-7.38-1.81-.27-.42-.43-2.1.38-2.11l20.64-.15c.75,0,1.55.1,1.74.49.23.47.18,1.18-.05,1.75-.15.36-1.01.2-1.63.51-4.42-.41-6.91,2.34-8.55,6.02l-21.08,47.54-21.26-47.96c-1.73-3.91-4.82-6-9.15-5.76-.63.04-.87-2.49.07-2.49l26.65.04c.53,0,.47,1.98.1,2.23-1.07.72-5.02-.33-7.11,1.88-.91.96-1.03,2.96-.29,4.66l13.48,31.18,13.61-31.46c.61-1.41.85-3.5-.17-4.57Z"/>
        <path class="cls-1" d="M511.29,184.3l-25.92-.16c-.57,0-.58-2.02-.16-2.13s1.17-.47,2-.44c4.13.2,6.95-2.79,7.13-7.01.48-11.23.45-22.4,0-33.65-.17-4.27-2.91-7.28-7.15-7.02-.79.05-1.57-.32-1.98-.44s-.39-2.11.12-2.11l25.97-.16c.83,0,1.59.11,1.8.49.24.42.12,1.33-.06,1.73-.16.35-.98.56-1.7.5-4.37-.4-7.44,2.51-7.56,7.03-.31,11.22-.34,22.37,0,33.55.14,4.52,3.18,7.44,7.55,7.14.72-.05,1.54.12,1.71.47.2.4.27,1.31.04,1.71-.22.38-.97.5-1.8.5Z"/>
        <path class="cls-1" d="M616.82,184.28l-27.4-.1c-2.74-5.15,8.59.84,9.15-9.21.65-11.48.62-22.98.02-34.46-.22-4.22-3.23-6.92-7.38-6.62-.58.04-1.19-.01-1.58-.12-.43-.12-.57-1.12-.43-2.46l27.97-.03c.44,0,.4,1.97.04,2.2s-.99.46-1.86.41c-4.1-.24-7.04,2.53-7.24,6.76-.54,11.37-.57,22.81.01,34.17.22,4.23,3.15,7,7.23,6.78.79-.04,1.62.08,1.85.43.32.49.61,2.25-.38,2.24Z"/>
        <path class="cls-1" d="M324.8,235.05c0,1.24-2.84,1.34-3.41.54l-11.79-16.36-.38,16.03c-.02.88-1.63.82-2.48.53v-20.58c1.37-.94,3.21-.67,4.17.7l10.84,15.36.48-15.99c.02-.82,2.1-.75,2.54,0l.04,19.77Z"/>
        <path class="cls-1" d="M500.4,225.34c0,6.2-5.03,11.23-11.23,11.23s-11.23-5.03-11.23-11.23,5.03-11.23,11.23-11.23,11.23,5.03,11.23,11.23ZM497.63,225.33c0-4.68-3.8-8.48-8.48-8.48s-8.48,3.8-8.48,8.48,3.8,8.48,8.48,8.48,8.48-3.8,8.48-8.48Z"/>
        <path class="cls-1" d="M409.2,233.82c-1.34-3.3-1.43-3.71-10.87-2.85-1.87.17-1.53,4.1-3.31,4.91-.5.23-2.57.14-2.25-.59l8.88-20.13c.32-.73,2.56-.59,2.85.12l8.48,20.07c.21.59-1.44.71-1.97.62-.95-.15-1.35-.99-1.82-2.16ZM406.88,228.11c-1.55-3.76-2.25-6.54-4.02-9.33l-4.03,9.46c2.97.11,5.06.36,8.06-.14Z"/>
        <path class="cls-1" d="M288.09,224.03c3.06,3.4-8.35,1.5-9.52,2.27-.45,2.31-.4,4.56-.03,6.98l10.53.39c.67.02.76,2.27-.07,2.26l-13.39-.06-.04-20.89c4.18-.5,8.2-.22,12.69-.21.87,0,.97,1.95.36,2.1-3.28.79-6.52-.14-10.02.45-.46,2.1-.44,4.07,0,6.2,1.95.54,8.79-.3,9.51.5Z"/>
        <path class="cls-1" d="M196.78,225.89l-9.16.41c-.46,2.37-.28,4.53-.06,7.11l10.61.22c.53.01.65,1.83.19,2.24l-13.64.02-.07-20.9c1.99-.17,13.13-.98,13.38.61.47,3.03-7.07.85-10.39,1.7-.43,2.18-.44,4.08,0,6.24l8.98.24c.88.02,1.11,2.08.15,2.12Z"/>
        <path class="cls-1" d="M253.53,236.11c-3.28.78-6.92.5-8.96-2.16-.52-.67,1.32-2.43,1.95-1.89,2.38,2.02,5.47,2.8,7.93.54.84-.76.96-2,.78-3.11-.64-4.05-12.39-1.77-10.31-10.94.42-1.86,2.18-3.54,4.66-4.07,2.77-.59,5.87-.38,7.79,1.72.62.67-.49,1.6-.99,1.93-1.2.79-2.57-2.67-6.66-1.04-1.31.52-2.8,2.14-1.92,4.17,1.56,3.63,9.93,1.9,10.45,8.43.21,2.68-1.22,5.58-4.72,6.41Z"/>
        <path class="cls-1" d="M577.58,234.72c-3.35,2.52-8.41,2.45-11.48-.42-.89-.84.39-1.82.91-2.18,1.37-.93,2.87,3.43,7.58,1.34,1.16-.52,2.68-2.25,1.83-4.26-1.51-3.55-9.94-2.02-10.45-8.26-.21-2.57,1.16-5.28,4.05-6.2s6.41-.92,8.71,1.48c.63.66-.67,1.78-1.25,2.01-1.08.42-2.52-2.81-6.69-1.02-1.38.59-2.47,2.38-1.58,4.18,1.53,3.09,9.16,2.57,10.08,6.86.53,2.47.35,4.94-1.7,6.47Z"/>
        <path class="cls-1" d="M222.82,236.3c-3.04.47-6.02.08-8-1.99-.8-.83.06-1.37.56-1.88,1.77-1.81,2.2,2.76,7.42,1.22,1.21-.36,2.97-1.77,2.53-3.89-.82-3.92-8.71-2.53-10.26-7.29-.6-1.85-.52-4.54,1.19-6.13,2.97-2.77,8.03-3.02,11.13-.19.77.7-.6,1.83-1.2,2.06-1.18.46-2.36-2.86-6.82-.95-1.29.55-2.28,2.38-1.41,4.22,1.55,3.27,10.3,1.91,10.35,8.61.02,3-1.86,5.65-5.48,6.21Z"/>
        <path class="cls-1" d="M350.56,235.38c0,.74-2.38.8-2.47.3l-.31-18.27c-2.07-.79-6.47.58-6.75-1.12-.16-.94.25-1.61,1.48-1.58,4.94.11,9.54-.2,14.47.16.78.06.76,2.09.02,2.14l-6.22.38-.22,17.98Z"/>
        <path class="cls-1" d="M440.79,233.58c1.01.02,1.13,2.09.27,2.18-4.05.42-7.64.07-11.73.17l.14-20.68c0-.76,2.34-.7,2.35.05l.23,18.11,8.75.16Z"/>
        <path class="cls-1" d="M541.43,233.26c2.77.78,8.14-.46,9.31.84,2.78,3.11-9.77,1.41-11.97,1.78l-.06-19.93c0-.93.57-1.21,1.19-1.24s1.39.19,1.4,1.28l.13,17.26Z"/>
        <rect class="cls-1" x="373.71" y="214.76" width="2.77" height="21.17"/>
        <rect class="cls-1" x="517.53" y="214.73" width="2.76" height="21.21"/>
        <path class="cls-1" d="M756.65,130.95c3.61-1.17,6.9,1.34,7.73,4.52.77,2.93-1.12,6.49-4.17,7.3-3.33.88-6.66-.65-7.82-4.22-.86-2.65.51-6.38,4.25-7.6ZM763.4,136.84c0-2.79-2.26-5.05-5.05-5.05s-5.05,2.26-5.05,5.05,2.26,5.05,5.05,5.05,5.05-2.26,5.05-5.05Z"/>
        <path class="cls-1" d="M761.32,140.27c-2.39-.22-1.97-1.97-3.59-3.02-1.07.85.15,2.36-1.43,3.22-.55-2.16-.83-4.87-.11-6.82,1.1-1.1,5.55-.64,5.03,1.47-.45,1.82-1.73,3.1.1,5.15Z"/>
        <g>
          <path class="cls-1" d="M422.29,84.13c12.38-7.74,31.48-24.34,32.46-40.93-7.81,22.24-27.56,35.92-48.36,47.88-7.76,4.46-15.25,8.51-22.24,14.4-3.68-10.48-2.75-19.93.94-29.41,6.77-17.39,19.38-31.01,36.62-38.6,18.21-7.64,32.57-18.82,40.49-37.47,8.85,35.17,1.93,70.71-31.61,88.43-10.9,5.76-21.2,11.78-31.21,18.9-6.54,4.65-11.81,9.97-15.49,17.36-1.35-3.72-3.02-8.17-2.51-12.02,4.11-5.39,10.04-9.24,15.85-12.88l25.05-15.67Z"/>
          <path class="cls-1" d="M394.9,158.36c2.99,12.19-4.81,23.23-16.24,24.6-11.85,1.42-22.02-7.83-21.66-20.04-.11-16.84,8.87-35.55,21.42-47.36,2.28,18.49,12.47,26.35,16.48,42.79ZM362.9,165.6l.35-14.38c.19-1.63,1.2-3.11.33-4.92-1.41,5.25-2.84,14.42-.69,19.29Z"/>
        </g>
      </g>
    </g>
  </g>
</svg>